HIERARCHY
ROOT Hips
{
	OFFSET -3.958830 18.904000 13.208200
	CHANNELS 6 Xposition Yposition Zposition Zrotation Yrotation Xrotation 
	JOINT LHipJoint
	{
		OFFSET 0.000000 0.000000 0.000000
		CHANNELS 3 Zrotation Yrotation Xrotation
		JOINT LeftUpLeg
		{
			OFFSET 1.800000 -1.400000 0.085000
			CHANNELS 3 Zrotation Yrotation Xrotation
			JOINT LeftLeg
			{
				OFFSET 2.215000 -6.000000 0.000000
				CHANNELS 3 Zrotation Yrotation Xrotation
				JOINT LeftFoot
				{
					OFFSET 2.500000 -6.900000 0.000000
					CHANNELS 3 Zrotation Yrotation Xrotation
					JOINT LeftToeBase
					{
						OFFSET 0.200000 -0.500000 1.950000
						CHANNELS 3 Zrotation Yrotation Xrotation
						End Site
						{
							OFFSET 0.000000 0.000000 0.000000
						}
					}
				}
			}
		}
	}
	JOINT RHipJoint
	{
		OFFSET 0.000000 0.000000 0.000000
		CHANNELS 3 Zrotation Yrotation Xrotation
		JOINT RightUpLeg
		{
			OFFSET -1.800000 -1.400000 0.085000
			CHANNELS 3 Zrotation Yrotation Xrotation
			JOINT RightLeg
			{
				OFFSET -2.215000 -6.000000 0.000000
				CHANNELS 3 Zrotation Yrotation Xrotation
				JOINT RightFoot
				{
					OFFSET -2.500000 -6.900000 0.000000
					CHANNELS 3 Zrotation Yrotation Xrotation
					JOINT RightToeBase
					{
						OFFSET -0.200000 -0.500000 1.950000
						CHANNELS 3 Zrotation Yrotation Xrotation
						End Site
						{
							OFFSET 0.000000 0.000000 0.000000
						}
					}
				}
			}
		}
	}
	JOINT LowerBack
	{
		OFFSET 0.000000 0.000000 0.000000
		CHANNELS 3 Zrotation Yrotation Xrotation
		JOINT Spine
		{
			OFFSET -0.087000 1.940000 -0.288900
			CHANNELS 3 Zrotation Yrotation Xrotation
			JOINT Spine1
			{
				OFFSET 0.000000 1.950000 0.060000
				CHANNELS 3 Zrotation Yrotation Xrotation
				JOINT Neck
				{
					OFFSET 0.000000 0.000000 0.000000
					CHANNELS 3 Zrotation Yrotation Xrotation
					JOINT Neck1
					{
						OFFSET 0.000000 1.600000 0.340000
						CHANNELS 3 Zrotation Yrotation Xrotation
						JOINT Head
						{
							OFFSET 0.000000 1.667000 -0.240000
							CHANNELS 3 Zrotation Yrotation Xrotation
							End Site
							{
								OFFSET 0.000000 0.000000 0.000000
							}
						}
					}
				}
				JOINT LeftShoulder
				{
					OFFSET 0.000000 0.000000 0.000000
					CHANNELS 3 Zrotation Yrotation Xrotation
					JOINT LeftArm
					{
						OFFSET 2.700000 1.550000 -0.730000
						CHANNELS 3 Zrotation Yrotation Xrotation
						JOINT LeftForeArm
						{
							OFFSET 5.450000 0.000000 0.000000
							CHANNELS 3 Zrotation Yrotation Xrotation
							JOINT LeftHand
							{
								OFFSET 3.450000 0.000000 0.000000
								CHANNELS 3 Zrotation Yrotation Xrotation
								JOINT LeftHandIndex1
								{
									OFFSET 0.750000 0.000000 0.000000
									CHANNELS 3 Zrotation Yrotation Xrotation
									End Site
									{
										OFFSET 0.000000 0.000000 0.000000
									}
								}
							}
						}
					}
				}
				JOINT RightShoulder
				{
					OFFSET 0.000000 0.000000 0.000000
					CHANNELS 3 Zrotation Yrotation Xrotation
					JOINT RightArm
					{
						OFFSET -2.700000 1.550000 -0.730000
						CHANNELS 3 Zrotation Yrotation Xrotation
						JOINT RightForeArm
						{
							OFFSET -5.450000 0.000000 0.000000
							CHANNELS 3 Zrotation Yrotation Xrotation
							JOINT RightHand
							{
								OFFSET -3.450000 0.000000 0.000000
								CHANNELS 3 Zrotation Yrotation Xrotation
								JOINT RightHandIndex1
								{
									OFFSET -0.750000 0.000000 0.000000
									CHANNELS 3 Zrotation Yrotation Xrotation
									End Site
									{
										OFFSET 0.000000 0.000000 0.000000
									}
								}
							}
						}
					}
				}
			}
		}
	}
}
MOTION
Frames: 14
Frame Time: 0.016667
-0.208450 16.799520 -0.436990 -5.913360 -32.376754 5.867147 -15.007476 14.185936 4.571115 -10.534477 2.314230 15.500520 8.168093 3.392996 11.102759 0.467481 4.854476 2.918093 0.096280 0.083260 0.178640 18.209583 -10.679412 2.598187 -2.573305 -2.700547 -10.401456 10.401079 -9.047399 21.773198 -0.427060 -3.971914 2.994289 0.007820 -0.013070 -0.002130 -3.194502 -4.649013 -8.104764 2.090181 -8.726092 20.175527 -9.345898 -9.397764 -11.857333 3.692128 -0.780317 -13.058307 -10.577173 18.403984 47.375901 9.321140 16.806780 -7.040830 -19.212607 -6.765390 2.289643 -23.691674 -31.525241 15.799618 146.198306 -14.249648 -40.580898 -3.588014 3.143556 0.370780 -0.046430 0.156180 -0.011470 15.286610 -1.162171 7.273145 6.378450 -32.073756 1.275728 -11.972431 0.712786 0.947948 2.934049 -0.877206 -0.138210 0.102480 -0.023430 -0.181810 
-0.199400 16.763770 -0.439070 -6.416267 -32.146245 5.219023 -15.127379 14.249664 4.588147 -9.332200 2.746718 15.787115 8.222707 3.660201 4.145491 0.474825 4.694099 2.973398 0.081700 0.058610 0.189590 18.134767 -10.495851 2.533371 -2.133046 -2.645886 -9.850050 10.265898 -9.356364 23.100532 -0.459539 -4.123398 2.939983 -0.015000 -0.031870 0.004880 -2.921402 -5.021135 -8.188394 0.897130 -8.384254 20.892059 -7.034128 -8.525964 -9.503262 3.019807 -0.313376 -13.254084 -9.595251 17.946154 47.813725 8.541430 17.490480 -7.311260 -20.644916 -8.846536 2.668751 -21.911536 -31.163361 15.059053 148.255898 -14.502711 -43.601445 -3.576029 3.150302 0.379520 -0.050620 0.164390 -0.025920 17.824181 0.750501 7.871825 10.881152 -31.988045 0.130421 -14.153773 -0.423959 1.295336 2.958067 -0.936838 -0.135590 0.080110 -0.022330 -0.194610 
-0.191940 16.723830 -0.426490 -6.787716 -33.326860 4.019212 -15.187821 14.214115 4.606087 -8.713416 2.927416 15.521932 6.800547 3.962535 0.111129 0.474142 4.641475 2.976037 0.094480 0.070150 0.225310 18.102402 -10.441288 2.481722 -2.414822 -2.581587 -8.770821 10.137686 -9.590798 24.059460 -0.517510 -4.291284 2.874228 -0.018560 -0.074710 0.012870 -2.777632 -5.067319 -8.229338 0.132199 -7.817286 21.756921 -4.942049 -7.653518 -8.133845 1.885983 -0.044382 -12.912497 -9.330304 17.972745 49.651338 7.469910 18.855910 -8.534660 -21.824746 -9.554402 2.771774 -18.841356 -29.286413 14.157032 151.543855 -15.924443 -50.718389 -3.543867 3.143592 0.409760 -0.069940 0.198020 -0.042450 21.019351 1.459397 7.570021 15.293118 -30.232349 -1.458489 -17.796507 -0.343489 1.527881 2.971442 -1.022856 -0.128220 0.063770 -0.029980 -0.216920 
-0.201470 16.696520 -0.396730 -6.751403 -35.216685 2.212578 -15.195703 14.217771 4.543737 -7.710775 2.932687 14.547097 3.677730 4.350621 -0.640608 0.447189 4.601686 2.975299 0.121660 0.102430 0.274330 18.092339 -10.530636 2.421360 -3.173055 -2.612588 -7.147058 8.942301 -9.484128 24.974922 -0.569045 -4.425108 2.825161 -0.008180 -0.119990 0.017360 -2.695754 -4.955184 -8.181362 -0.747755 -7.419416 22.565786 -3.359389 -7.114910 -7.016477 0.700850 -0.046257 -12.219419 -9.542188 18.423264 51.843406 5.813180 20.929000 -9.878040 -22.794447 -9.483791 2.319748 -13.933193 -26.405388 12.571931 155.694654 -17.729505 -60.929714 -3.513294 3.142371 0.436600 -0.086840 0.235660 -0.054660 24.133832 1.646414 7.071314 18.534887 -28.049008 -2.825199 -17.443121 2.232979 1.024487 2.902668 -1.049985 -0.120290 0.054670 -0.046960 -0.240880 
-0.192530 16.671810 -0.370220 -7.209208 -37.837676 -0.113968 -15.298644 14.384581 4.432588 -6.235386 2.750989 13.914696 0.063141 4.962076 1.067302 0.420708 4.750853 2.915620 0.159140 0.142330 0.320940 18.009661 -10.460361 2.334985 -3.362261 -2.585460 -4.963284 7.057054 -9.239807 26.687029 -0.624143 -4.637115 2.746370 0.024810 -0.151070 0.029150 -2.310371 -5.352358 -8.076022 -1.969182 -6.455347 23.942386 -0.019573 -5.241691 -2.948150 -0.731783 -1.184421 -11.788127 -11.814682 18.853164 51.424255 2.479320 22.453130 -11.719350 -24.224714 -10.500736 1.777070 -8.217090 -24.368193 11.613262 160.623256 -20.227847 -77.523495 -3.514214 3.144873 0.449620 -0.087050 0.256110 -0.063170 27.978263 4.483324 7.979773 20.055831 -25.591150 -2.755915 -13.369625 0.847771 0.929271 2.829584 -1.001215 -0.118110 0.056420 -0.053620 -0.263470 
-0.178610 16.677790 -0.355460 -8.147824 -40.831010 -2.033909 -15.473551 14.719917 4.221545 -3.383782 2.081445 12.308283 -5.422589 6.202064 5.050109 0.417605 5.117749 2.774955 0.203970 0.195670 0.362110 17.864877 -10.213778 2.283428 -3.253811 -2.418749 -2.206886 5.408836 -8.644987 27.111527 -0.662407 -4.727288 2.711142 0.065390 -0.186350 0.039570 -1.627511 -6.239413 -7.994466 -3.428958 -4.542934 25.488784 4.927604 -2.425929 2.092050 -1.785696 -2.678409 -12.032947 -15.242861 19.022216 50.505931 -0.656630 23.194340 -13.398920 -24.699527 -12.189973 1.455662 -3.934822 -23.296478 11.874762 166.942130 -22.971324 -102.210666 -3.507464 3.197229 0.458860 -0.091320 0.276700 -0.071800 30.150008 8.947963 9.958251 21.016944 -23.546935 -2.435701 -7.495175 -0.096636 0.633260 2.706944 -0.947285 -0.108650 0.056850 -0.058970 -0.280370 
-0.200990 16.654150 -0.302020 -9.349309 -41.349420 -0.802847 -15.850080 15.071139 4.051761 0.056511 1.328153 9.887779 -10.355434 7.089191 5.176341 0.433971 5.496626 2.648160 0.243280 0.245620 0.380130 17.606980 -9.562983 2.209535 -1.646444 -2.014945 -1.493480 5.080257 -8.065714 26.457217 -0.627578 -4.594862 2.754071 0.117440 -0.181010 0.044910 -0.576569 -7.741519 -7.989543 -4.760120 -3.245512 22.626228 12.168984 -0.983399 7.647162 -2.677475 -4.401054 -12.152198 -19.904634 18.447789 48.165408 -3.286930 22.271540 -12.784100 -20.242718 -10.894144 1.437593 -3.560335 -23.750582 14.330847 178.249469 -26.867285 -151.813409 -3.631570 3.334396 0.421260 -0.065280 0.261580 -0.063900 27.264997 11.059341 10.966717 22.483590 -20.107411 -2.738720 -2.740876 -0.014430 0.186352 2.603338 -0.928155 -0.100400 0.071090 -0.063240 -0.274330 
-0.226600 16.609860 -0.246190 -9.611751 -39.443493 2.651950 -16.029513 15.197593 3.895721 2.248506 0.436268 4.272050 -14.100221 7.807933 7.221811 0.382374 5.509655 2.616228 0.289160 0.298110 0.369400 17.452050 -9.303859 2.243326 -0.076294 -1.176093 -4.328227 5.506193 -7.627114 26.146850 -0.563051 -4.276983 2.854922 0.149340 -0.187710 0.024600 -0.206599 -8.180785 -7.941672 -4.415704 -2.878035 18.031298 18.954158 -1.464008 7.198542 -3.505339 -5.859041 -12.764562 -25.591649 19.235465 47.739779 -2.230100 19.871530 -10.808000 -13.271379 -8.277075 1.736885 -5.761816 -24.292857 12.444030 -163.843328 -27.696414 129.489736 -3.663715 3.780893 0.415210 -0.097370 0.263210 -0.036260 22.724202 10.514712 11.169179 25.555221 -18.566251 -3.548300 -0.796668 0.315395 0.012666 2.599667 -0.908280 -0.080100 0.090440 -0.081180 -0.243960 
-0.213200 16.567360 -0.242340 -7.908520 -35.552607 2.511605 -15.941519 15.076050 3.790961 3.653278 -0.450217 -0.266897 -16.814727 9.167326 12.200486 0.376341 5.796270 2.484271 0.283370 0.275350 0.361100 17.482852 -9.492281 2.276269 -0.882765 -0.738986 -5.727536 6.627602 -7.947523 26.478341 -0.547167 -4.330674 2.834342 0.139140 -0.187810 0.021530 -0.484447 -7.633711 -7.933876 -4.010540 -1.547079 17.441782 20.625294 -0.778736 5.512387 -4.625792 -5.158927 -12.204601 -23.275347 16.563833 49.137172 -1.758330 17.487770 -9.673450 -9.464375 -8.422245 0.911924 0.049499 -24.878138 8.763830 -156.597262 -33.188805 115.227634 -3.564777 3.864615 0.410810 -0.099630 0.249620 -0.035580 21.308620 10.445946 11.086675 32.330675 -17.749392 -4.765600 -0.756858 -0.134228 0.117566 2.625516 -0.918106 -0.078710 0.085960 -0.078260 -0.241000 
-0.202710 16.544550 -0.248530 -6.441423 -34.543467 0.384627 -15.813756 14.864210 3.773138 4.485944 -1.152740 -2.120873 -18.932049 10.806091 16.993266 0.430193 6.423735 2.247358 0.288390 0.274080 0.370630 17.576662 -9.715605 2.237419 -2.793716 -0.686285 -4.822322 7.393767 -8.263406 26.438530 -0.556473 -4.549185 2.757551 0.163130 -0.179560 0.025140 -0.821603 -7.007726 -7.912984 -3.077314 0.563429 18.707722 20.242252 0.704211 6.232168 -6.477203 -4.120942 -10.958810 -19.894071 13.450971 49.155238 -2.592870 15.633220 -9.987060 -7.232748 -9.037889 -0.491958 10.488798 -25.260004 5.481400 -155.806840 -46.309677 133.468584 -3.614112 3.743480 0.390770 -0.072160 0.223460 -0.044070 22.137961 10.822532 10.793185 37.126781 -15.461480 -5.200684 -1.971632 0.382956 0.230849 2.597007 -0.984538 -0.090470 0.092340 -0.069310 -0.252570 
-0.198830 16.506350 -0.242190 -4.832494 -34.183256 -2.361325 -15.625496 14.496313 3.851591 5.253148 -2.367105 -3.914577 -21.490468 13.210608 23.206179 0.596072 7.462366 1.880674 0.296950 0.286110 0.372570 17.736000 -10.008575 2.176351 -4.808800 -0.700122 -3.569237 7.401998 -8.433808 26.674427 -0.574849 -4.808652 2.669153 0.193640 -0.154370 0.039380 -1.375975 -6.103145 -7.910199 -1.076163 2.498500 20.634307 17.961149 1.957017 6.676904 -8.396047 -2.568659 -9.228170 -15.492947 10.479210 47.991044 -2.996390 14.154710 -10.416520 -5.036291 -8.481506 -1.893572 22.185962 -24.554252 1.481217 -159.752846 -66.759818 158.618761 -3.713627 3.597227 0.352750 -0.031010 0.194150 -0.041170 22.837423 9.670945 9.452388 41.778321 -12.218104 -5.634729 -4.340876 1.406548 0.259766 2.577042 -1.076505 -0.095050 0.097550 -0.064920 -0.252120 
-0.220830 16.464090 -0.216570 -3.050220 -33.926206 -4.633579 -15.532597 14.143701 4.039913 6.127965 -3.866725 -6.332114 -24.089812 16.013614 29.303616 0.851102 8.691374 1.469658 0.279530 0.272820 0.344440 17.826557 -10.158802 2.064607 -6.345846 -0.553756 -2.808824 6.840479 -8.455282 27.598627 -0.574199 -5.039585 2.597293 0.201340 -0.108020 0.051800 -1.698312 -5.486807 -7.957610 -0.693146 3.679900 22.051063 17.050334 2.390060 6.481533 -9.964449 -1.879795 -8.400022 -13.226116 9.200251 46.535584 -3.176460 13.587960 -9.608370 -2.842070 -8.434455 -2.620286 32.459277 -22.390979 -0.883765 -153.748312 -85.043366 161.423359 -3.767888 3.553710 0.302930 0.017160 0.152550 -0.035260 23.404836 9.455450 8.644983 43.473995 -8.779470 -5.754781 -5.938250 3.780309 -0.033632 2.536733 -1.172707 -0.098540 0.097950 -0.049760 -0.238350 
-0.247630 16.434490 -0.178420 -1.227982 -33.796653 -6.904231 -15.452109 13.718917 4.313525 6.673242 -5.583011 -9.241268 -26.335448 18.998808 35.303275 1.145341 9.946853 1.062606 0.278910 0.272450 0.347940 17.917896 -10.332123 1.907230 -7.742957 -0.453042 -2.165803 5.333142 -8.200184 28.896835 -0.586757 -5.206740 2.535974 0.204380 -0.097930 0.062600 -2.023752 -4.726607 -8.033440 -0.851198 4.777821 23.526105 15.795918 2.867982 6.681704 -10.932796 -0.712534 -8.220923 -9.789299 7.827424 45.835911 -2.938420 13.498880 -9.546900 0.056071 -9.271590 -2.378182 39.386261 -20.060646 -2.015224 17.816178 -75.418447 -5.242992 -3.792413 3.578257 0.283740 0.033510 0.144080 -0.034990 22.210981 9.723954 7.719870 46.359629 -4.741081 -5.633939 -5.774383 4.754704 -0.232869 2.527750 -1.212091 -0.094620 0.089300 -0.052400 -0.236030 
-0.269050 16.436990 -0.154360 1.583722 -33.363063 -9.862635 -15.460614 13.307671 4.731048 7.362685 -7.501778 -12.950165 -29.287010 23.086198 41.683144 1.521282 11.498229 0.595293 0.269160 0.262020 0.339850 17.945856 -10.363760 1.653032 -9.548439 -0.350271 -1.446962 3.466838 -7.770428 30.094166 -0.588767 -5.310298 2.505405 0.204800 -0.083600 0.054360 -2.103591 -4.311657 -8.158678 -3.073417 6.058565 25.628599 15.508125 3.566868 6.797222 -11.831200 -0.347096 -8.477451 -8.269246 7.416191 45.207561 -2.492790 13.646400 -9.965670 2.238518 -11.105955 -2.144188 44.104455 -16.980686 -2.932827 17.649198 -61.524398 -2.653691 -3.779429 3.534446 0.294230 0.035870 0.137970 -0.035590 21.800944 11.623919 7.787951 48.348234 -1.219545 -5.221943 -6.247042 5.296108 -0.337942 2.512565 -1.229963 -0.111780 0.108640 -0.042940 -0.239550 
